<?xml version="1.0" encoding="utf-8"?>
<!-- Generator: Adobe Illustrator 19.2.0, SVG Export Plug-In . SVG Version: 6.00 Build 0)  -->
<svg version="1.1" id="Layer_1" xmlns="http://www.w3.org/2000/svg" xmlns:xlink="http://www.w3.org/1999/xlink" x="0px" y="0px"
	 viewBox="0 0 360 156.3" style="enable-background:new 0 0 360 156.3;" xml:space="preserve">
<style type="text/css">
	.st0{fill:#FFFFFF;}
</style>
<g>
	<path class="st0" d="M167.5,124.9h11.7V76.2h-11.7V124.9z M168.6,58c-0.8,0-1.2,0.8-1.2,1.2v10.6h11.7V59.2c0-0.6-0.2-1.2-1.2-1.2
		H168.6z M135.8,58c-1,0-1.2,0.6-1.2,1.2v9.4c0,11.2-1.2,27.6-14.7,44.6l-7.6-53.6c-0.2-1-0.4-1.6-1.6-1.6H99.4
		c-1.2,0-1.2,0.8-1.2,1.2c-0.8,26-12.7,61.3-41.1,66.5c1,0,2,0.2,2.9,0.2c17.8,0,37.2-11.9,42.9-35l4.7,35.6
		c-11.2,5.7-23.3,8.4-35,8.4c-27,0-53-14.9-66-44c8.2,35.6,37.6,53.8,66.7,53.8c28.8,0,57.1-17.8,64.8-53.8c0,0,5.3,32.9,5.3,34.1
		h15.9l-11.2-65.8c-0.2-0.8-0.4-1.2-1.4-1.2H135.8z M16,85.6c0.8-39.3,32.5-62.4,65.2-62.4c20.5,0,41.5,9,55.2,29
		C125.2,23,100.1,9.8,75.3,9.8c-32.5,0-64.6,22.7-64.6,62.2c0,8.8,2.3,18.2,7,26.4C16.6,94.4,16,89.7,16,85.6L16,85.6z M303.7,89.7
		l4.7,1.8c3.3-5.4,7.8-7.8,13.3-7.8c5.9,0,11.4,3.7,11.4,10.6V95c-3.5-0.8-6.8-1.4-10.2-1.4c-11.5,0-20.4,5.7-20.4,17.8
		c0,9,8.6,14.3,17.2,14.3c4.9,0,10-1.8,13.3-5.5v4.7h10.6V92.6c0-10.6-9-17.2-18.6-17.2C316.2,75.4,306.8,80.1,303.7,89.7
		L303.7,89.7z M333,114.4c-2.7,1.8-6.7,2.9-10.4,2.9c-5.1,0-9.6-2.2-9.6-7.6c0-6.3,5.1-9.4,11.4-9.4c2.7,0,5.7,0.6,8.6,1.8V114.4z
		 M294.3,102.6c0-15.9-8.4-27.2-23.3-27.2c-14.7,0-24.9,11.4-24.9,24.9c0,16,13.1,25.2,25.8,25.2c9.2,0,18-4.7,21.7-15.3l-4.1-1.8
		c-2.9,4.3-9.2,6.8-15.5,6.8c-7.4,0-14.7-3.7-15.7-12.7H294.3z M258.5,95.6c1.2-7.4,6.8-11.4,12.5-11.4s11.2,3.7,12.1,11.4H258.5z
		 M226.8,58c-1.2,0-1.2,0.8-1.2,1.2v20c-4.3-2.5-9-3.7-13.7-3.7c-11.9,0-23.3,8.2-23.3,25.4c0,17.6,10.8,24.9,21.1,24.9
		c6.3,0,12.3-2.7,15.9-7.2v6.5h11.7V59.2c0-0.8-0.4-1.2-1.2-1.2H226.8z M225.6,110.8c-3.5,3.1-7.4,4.5-11.2,4.5
		c-7,0-12.9-5.3-12.9-15.7S208.2,85,215,85c3.9,0,8,1.6,10.6,4.1V110.8z"/>
</g>
</svg>
